<svg xmlns="http://www.w3.org/2000/svg" id="Layer_2" data-name="Layer 2" viewBox="0 0 1125.91 278.32"><defs><style>      .cls-1 {        fill: #f3a145;      }      .cls-2 {        fill: #fff;      }    </style></defs><g id="Layer_1-2" data-name="Layer 1"><g><g><path class="cls-2" d="M0,182.62L41.42,50.56h36.78l41.42,132.06h-26.88l-11.99-41.33,14.17,10.44H29.79l4-20.62h55.22l-8.45,9.9-12.99-44.6-7.27-28.25h-1.18l-7.18,28.25-25.07,86.19H0Z"></path><path class="cls-2" d="M165.21,184.35c-10.17,0-18.76-2.16-25.75-6.49-6.99-4.33-12.29-10.37-15.89-18.12-3.6-7.75-5.4-16.77-5.4-27.07s1.86-19.8,5.59-27.43c3.72-7.63,9.04-13.47,15.94-17.53,6.9-4.06,15.05-6.08,24.43-6.08s16.98,1.63,23.16,4.9c6.18,3.27,10.76,7.72,13.76,13.35,3,5.63,4.31,11.96,3.95,18.98h-24.16c-.06-2.72-.45-5.15-1.18-7.27-.73-2.12-1.79-3.89-3.18-5.31-1.39-1.42-3.1-2.5-5.13-3.22-2.03-.73-4.44-1.09-7.22-1.09-7.33,0-12.64,2.6-15.94,7.81-3.3,5.21-4.95,12.69-4.95,22.43,0,10.84,1.92,18.77,5.77,23.8,3.84,5.03,9.55,7.63,17.12,7.81,2.3.06,4.65-.44,7.04-1.5,2.39-1.06,4.36-2.71,5.9-4.95s2.28-5.06,2.23-8.45h23.98c.24,7.21-1.35,13.46-4.77,18.76-3.42,5.3-8.17,9.4-14.26,12.31-6.09,2.91-13.09,4.36-21.03,4.36Z"></path><path class="cls-2" d="M257.31,184.35c-10.17,0-18.76-2.16-25.75-6.49-6.99-4.33-12.29-10.37-15.89-18.12-3.6-7.75-5.4-16.77-5.4-27.07s1.86-19.8,5.59-27.43c3.72-7.63,9.04-13.47,15.94-17.53,6.9-4.06,15.05-6.08,24.43-6.08s16.98,1.63,23.16,4.9c6.18,3.27,10.76,7.72,13.76,13.35,3,5.63,4.31,11.96,3.95,18.98h-24.16c-.06-2.72-.45-5.15-1.18-7.27-.73-2.12-1.79-3.89-3.18-5.31-1.39-1.42-3.1-2.5-5.13-3.22-2.03-.73-4.44-1.09-7.22-1.09-7.33,0-12.64,2.6-15.94,7.81-3.3,5.21-4.95,12.69-4.95,22.43,0,10.84,1.92,18.77,5.77,23.8,3.84,5.03,9.55,7.63,17.12,7.81,2.3.06,4.65-.44,7.04-1.5,2.39-1.06,4.36-2.71,5.9-4.95s2.28-5.06,2.23-8.45h23.98c.24,7.21-1.35,13.46-4.77,18.76-3.42,5.3-8.17,9.4-14.26,12.31-6.09,2.91-13.09,4.36-21.03,4.36Z"></path><path class="cls-2" d="M349.31,183.98c-9.81,0-18.23-1.98-25.25-5.95-7.02-3.96-12.41-9.75-16.17-17.35-3.75-7.6-5.63-16.85-5.63-27.75s1.98-20.34,5.95-27.97c3.97-7.63,9.52-13.44,16.67-17.44,7.14-4,15.38-5.99,24.7-5.99s17.09,1.79,23.48,5.36c6.39,3.57,11.25,8.8,14.58,15.67,3.33,6.87,5,15.37,5,25.48,0,1.63-.05,3.19-.14,4.68-.09,1.48-.2,3.19-.32,5.13h-65.12c.54,9.08,2.74,15.74,6.58,19.98,3.84,4.24,8.89,6.36,15.12,6.36,5.39,0,9.52-1.2,12.4-3.59,2.88-2.39,4.65-5.25,5.31-8.58h24.07c-.54,6.6-2.59,12.31-6.13,17.12-3.54,4.81-8.3,8.49-14.26,11.04-5.96,2.54-12.91,3.81-20.84,3.81ZM337.69,122.49h30.52c-.24-6.72-1.89-11.85-4.95-15.39-3.06-3.54-7.92-5.31-14.58-5.31-7.33,0-12.75,2.53-16.26,7.58-3.51,5.06-5.36,12.16-5.54,21.3.48-3.15,1.57-5.3,3.27-6.45,1.69-1.15,4.21-1.73,7.54-1.73Z"></path><path class="cls-2" d="M403.63,182.62V41.02h25.07v141.6h-25.07Z"></path><path class="cls-2" d="M487.46,183.98c-9.81,0-18.23-1.98-25.25-5.95-7.02-3.96-12.41-9.75-16.17-17.35-3.75-7.6-5.63-16.85-5.63-27.75s1.98-20.34,5.95-27.97c3.97-7.63,9.52-13.44,16.67-17.44,7.14-4,15.38-5.99,24.7-5.99s17.09,1.79,23.48,5.36c6.39,3.57,11.25,8.8,14.58,15.67,3.33,6.87,5,15.37,5,25.48,0,1.63-.04,3.19-.14,4.68-.09,1.48-.2,3.19-.32,5.13h-65.12c.54,9.08,2.74,15.74,6.58,19.98,3.84,4.24,8.89,6.36,15.12,6.36,5.39,0,9.52-1.2,12.4-3.59,2.88-2.39,4.65-5.25,5.31-8.58h24.07c-.54,6.6-2.59,12.31-6.13,17.12-3.54,4.81-8.3,8.49-14.26,11.04-5.96,2.54-12.91,3.81-20.84,3.81ZM475.83,122.49h30.52c-.24-6.72-1.89-11.85-4.95-15.39-3.06-3.54-7.92-5.31-14.58-5.31-7.33,0-12.75,2.53-16.26,7.58-3.51,5.06-5.36,12.16-5.54,21.3.48-3.15,1.57-5.3,3.27-6.45,1.69-1.15,4.21-1.73,7.54-1.73Z"></path><path class="cls-2" d="M541.68,182.62v-99.09h22.07l2.36,38.51-1.82-5.63c.48-4.6,1.39-9.01,2.72-13.21,1.33-4.21,3.13-7.93,5.4-11.17,2.27-3.24,5.09-5.81,8.45-7.72,3.36-1.91,7.31-2.86,11.85-2.86,1.21,0,2.44.06,3.68.18,1.24.12,2.38.33,3.41.64v26.34c-2.12-.6-4.22-1.01-6.31-1.23-2.09-.21-4.1-.32-6.04-.32-2.85,0-5.63.38-8.36,1.13-2.72.76-5.16,1.91-7.31,3.45-2.15,1.54-3.8,3.47-4.95,5.77v65.21h-25.16Z"></path><path class="cls-2" d="M632.51,183.71c-5.75,0-10.94-1.1-15.58-3.32-4.63-2.21-8.27-5.36-10.9-9.45s-3.95-8.95-3.95-14.58c0-5.93,1.14-10.82,3.41-14.67,2.27-3.84,5.48-6.9,9.63-9.17,4.15-2.27,8.92-3.98,14.3-5.13,3.75-.73,7.64-1.35,11.67-1.86,4.03-.51,7.8-.92,11.31-1.23,3.51-.3,6.39-.54,8.63-.73v-3.36c0-6.54-1.2-11.26-3.59-14.17-2.39-2.91-6.46-4.36-12.22-4.36-3.69,0-6.8.49-9.31,1.45-2.51.97-4.41,2.73-5.68,5.27s-1.91,6.21-1.91,10.99h-23.34c-.73-8.66.56-15.77,3.86-21.34,3.3-5.57,8.17-9.7,14.62-12.4,6.45-2.69,14.03-4.04,22.75-4.04,5.15,0,10.07.56,14.76,1.68,4.69,1.12,8.89,3.03,12.58,5.72,3.69,2.7,6.6,6.37,8.72,11.04,2.12,4.66,3.18,10.57,3.18,17.71v64.85h-24.7l.27-22.71c-1.15,6.72-3.97,12.37-8.45,16.94-4.48,4.57-11.17,6.86-20.07,6.86ZM640.23,166.18c3.09,0,6.11-.56,9.08-1.68,2.97-1.12,5.52-2.68,7.67-4.68,2.15-2,3.5-4.27,4.04-6.81v-16.89c-2.48.36-5.15.79-7.99,1.27-2.85.49-5.33.97-7.45,1.45-6.42,1.33-10.92,3.17-13.49,5.5-2.57,2.33-3.86,5.59-3.86,9.76,0,2.48.5,4.63,1.5,6.45,1,1.82,2.41,3.21,4.22,4.18,1.82.97,3.91,1.45,6.27,1.45Z"></path><path class="cls-2" d="M692,103.87v-20.34h59.13v20.34h-59.13ZM729.33,183.89c-7.99,0-14.23-2.04-18.71-6.13-4.48-4.09-6.72-10.19-6.72-18.3l-.18-47.14c0-2.12.54-3.94,1.63-5.45s2.63-2.51,4.63-3l-6.27-16.44v-2.82l5-29.52h19.98v97.18c0,3.94.64,6.65,1.91,8.13,1.27,1.48,3.69,2.23,7.27,2.23,2.85,0,5.36-.03,7.54-.09,2.18-.06,4.18-.18,6-.36v20.34c-2.6.73-5.95,1.14-10.04,1.23-4.09.09-8.1.14-12.03.14Z"></path><path class="cls-2" d="M801.17,183.98c-9.39,0-17.54-1.97-24.48-5.9-6.93-3.94-12.32-9.73-16.17-17.39-3.85-7.66-5.77-17.06-5.77-28.2,0-10.54,2.03-19.62,6.09-27.25,4.06-7.63,9.61-13.49,16.67-17.57,7.05-4.09,15.06-6.13,24.02-6.13,9.69,0,18,2.04,24.93,6.13,6.93,4.09,12.25,9.95,15.94,17.57,3.69,7.63,5.54,16.71,5.54,27.25,0,11.14-2.06,20.54-6.18,28.2-4.12,7.66-9.7,13.46-16.76,17.39-7.05,3.94-15,5.9-23.84,5.9ZM801.54,163c6.18,0,11.28-2.3,15.3-6.9,4.03-4.6,6.04-12.47,6.04-23.61,0-10.35-2.01-17.94-6.04-22.75-4.03-4.81-9.25-7.22-15.67-7.22s-11.28,2.39-15.3,7.18c-4.03,4.78-6.04,12.38-6.04,22.8s2.09,18.33,6.27,23.21c4.18,4.88,9.32,7.31,15.44,7.31Z"></path><path class="cls-2" d="M859.66,182.62v-99.09h22.07l2.36,38.51-1.82-5.63c.48-4.6,1.39-9.01,2.72-13.21,1.33-4.21,3.13-7.93,5.4-11.17,2.27-3.24,5.09-5.81,8.45-7.72,3.36-1.91,7.31-2.86,11.85-2.86,1.21,0,2.44.06,3.68.18,1.24.12,2.38.33,3.41.64v26.34c-2.12-.6-4.22-1.01-6.31-1.23-2.09-.21-4.1-.32-6.04-.32-2.85,0-5.63.38-8.36,1.13-2.72.76-5.16,1.91-7.31,3.45-2.15,1.54-3.8,3.47-4.95,5.77v65.21h-25.16Z"></path></g><path class="cls-1" d="M559.46,254.2c-2.2-.25-2.82,2.94-.68,3.51,6.11,1.65,12.27,3.22,18.48,4.69,254.63,60.34,500.24-56.15,548.59-260.18h0c.49-2.08-2.4-3.13-3.35-1.22-89.28,178.77-315.8,281.46-563.04,253.19Z"></path></g></g></svg>